<svg width="16" height="16" viewBox="0 0 16 16" fill="none" xmlns="http://www.w3.org/2000/svg">
<g clip-path="url(#clip0_547_4094)">
<path fill-rule="evenodd" clip-rule="evenodd" d="M6 12.5C6 12.6326 6.05268 12.7598 6.14645 12.8536C6.24021 12.9473 6.36739 13 6.5 13H14.5C14.6326 13 14.7598 12.9473 14.8536 12.8536C14.9473 12.7598 15 12.6326 15 12.5V3.5C15 3.36739 14.9473 3.24021 14.8536 3.14645C14.7598 3.05268 14.6326 3 14.5 3H6.5C6.36739 3 6.24021 3.05268 6.14645 3.14645C6.05268 3.24021 6 3.36739 6 3.5V5.5C6 5.63261 5.94732 5.75979 5.85355 5.85355C5.75979 5.94732 5.63261 6 5.5 6C5.36739 6 5.24021 5.94732 5.14645 5.85355C5.05268 5.75979 5 5.63261 5 5.5V3.5C5 3.10218 5.15804 2.72064 5.43934 2.43934C5.72064 2.15804 6.10218 2 6.5 2H14.5C14.8978 2 15.2794 2.15804 15.5607 2.43934C15.842 2.72064 16 3.10218 16 3.5V12.5C16 12.8978 15.842 13.2794 15.5607 13.5607C15.2794 13.842 14.8978 14 14.5 14H6.5C6.10218 14 5.72064 13.842 5.43934 13.5607C5.15804 13.2794 5 12.8978 5 12.5V10.5C5 10.3674 5.05268 10.2402 5.14645 10.1464C5.24021 10.0527 5.36739 10 5.5 10C5.63261 10 5.75979 10.0527 5.85355 10.1464C5.94732 10.2402 6 10.3674 6 10.5V12.5Z" fill="black"/>
<path fill-rule="evenodd" clip-rule="evenodd" d="M0.146894 8.35414C0.100331 8.3077 0.0633877 8.25252 0.0381813 8.19178C0.0129748 8.13103 0 8.06591 0 8.00014C0 7.93438 0.0129748 7.86926 0.0381813 7.80851C0.0633877 7.74777 0.100331 7.69259 0.146894 7.64614L3.14689 4.64614C3.19338 4.59966 3.24857 4.56278 3.30931 4.53762C3.37005 4.51246 3.43515 4.49951 3.50089 4.49951C3.56664 4.49951 3.63174 4.51246 3.69248 4.53762C3.75322 4.56278 3.80841 4.59966 3.85489 4.64614C3.90138 4.69263 3.93826 4.74782 3.96342 4.80856C3.98858 4.8693 4.00153 4.9344 4.00153 5.00014C4.00153 5.06589 3.98858 5.13099 3.96342 5.19173C3.93826 5.25247 3.90138 5.30766 3.85489 5.35414L1.70789 7.50014H10.5009C10.6335 7.50014 10.7607 7.55282 10.8544 7.64659C10.9482 7.74036 11.0009 7.86754 11.0009 8.00014C11.0009 8.13275 10.9482 8.25993 10.8544 8.3537C10.7607 8.44747 10.6335 8.50014 10.5009 8.50014H1.70789L3.85489 10.6461C3.90138 10.6926 3.93826 10.7478 3.96342 10.8086C3.98858 10.8693 4.00153 10.9344 4.00153 11.0001C4.00153 11.0659 3.98858 11.131 3.96342 11.1917C3.93826 11.2525 3.90138 11.3077 3.85489 11.3541C3.80841 11.4006 3.75322 11.4375 3.69248 11.4627C3.63174 11.4878 3.56664 11.5008 3.50089 11.5008C3.43515 11.5008 3.37005 11.4878 3.30931 11.4627C3.24857 11.4375 3.19338 11.4006 3.14689 11.3541L0.146894 8.35414Z" fill="black"/>
</g>
<defs>
<clipPath id="clip0_547_4094">
<rect width="16" height="16" fill="white"/>
</clipPath>
</defs>
</svg>
