<svg width="16" height="16" viewBox="0 0 16 16" fill="none" xmlns="http://www.w3.org/2000/svg">
<path d="M2.5593 0.640137V1.92014H1.2793V15.3601H14.7193V4.48014H9.5993V1.92014H8.3193V0.640137H2.5593ZM3.1993 1.28014H7.6793V2.56014H8.9593V14.7201H6.0793V12.4801H4.7993V14.7201H1.9193V2.56014H3.1993V1.28014ZM3.1993 3.20014V3.84014H3.8393V3.20014H3.1993ZM4.4793 3.20014V3.84014H5.1193V3.20014H4.4793ZM5.7593 3.20014V3.84014H6.3993V3.20014H5.7593ZM7.0393 3.20014V3.84014H7.6793V3.20014H7.0393ZM3.1993 4.80014V6.08014H3.8393V4.80014H3.1993ZM4.4793 4.80014V6.08014H5.1193V4.80014H4.4793ZM5.7593 4.80014V6.08014H6.3993V4.80014H5.7593ZM7.0393 4.80014V6.08014H7.6793V4.80014H7.0393ZM9.5993 5.12014H14.0793V14.7201H9.5993V5.12014ZM10.2393 5.76014V6.40014H10.8793V5.76014H10.2393ZM11.5193 5.76014V6.40014H12.1593V5.76014H11.5193ZM12.7993 5.76014V6.40014H13.4393V5.76014H12.7993ZM3.1993 6.72014V8.00014H3.8393V6.72014H3.1993ZM4.4793 6.72014V8.00014H5.1193V6.72014H4.4793ZM5.7593 6.72014V8.00014H6.3993V6.72014H5.7593ZM7.0393 6.72014V8.00014H7.6793V6.72014H7.0393ZM10.2393 7.04014V7.68014H10.8793V7.04014H10.2393ZM11.5193 7.04014V7.68014H12.1593V7.04014H11.5193ZM12.7993 7.04014V7.68014H13.4393V7.04014H12.7993ZM10.2393 8.32014V8.96014H10.8793V8.32014H10.2393ZM11.5193 8.32014V8.96014H12.1593V8.32014H11.5193ZM12.7993 8.32014V8.96014H13.4393V8.32014H12.7993ZM3.1993 8.64014V9.92014H3.8393V8.64014H3.1993ZM4.4793 8.64014V9.92014H5.1193V8.64014H4.4793ZM5.7593 8.64014V9.92014H6.3993V8.64014H5.7593ZM7.0393 8.64014V9.92014H7.6793V8.64014H7.0393ZM10.2393 9.60014V10.2401H10.8793V9.60014H10.2393ZM11.5193 9.60014V10.2401H12.1593V9.60014H11.5193ZM12.7993 9.60014V10.2401H13.4393V9.60014H12.7993ZM3.1993 10.5601V11.8401H3.8393V10.5601H3.1993ZM4.4793 10.5601V11.8401H5.1193V10.5601H4.4793ZM5.7593 10.5601V11.8401H6.3993V10.5601H5.7593ZM7.0393 10.5601V11.8401H7.6793V10.5601H7.0393ZM10.2393 10.8801V11.5201H10.8793V10.8801H10.2393ZM11.5193 10.8801V11.5201H12.1593V10.8801H11.5193ZM12.7993 10.8801V11.5201H13.4393V10.8801H12.7993ZM10.2393 12.1601V12.8001H10.8793V12.1601H10.2393ZM11.5193 12.1601V12.8001H12.1593V12.1601H11.5193ZM12.7993 12.1601V12.8001H13.4393V12.1601H12.7993ZM3.1993 12.4801V14.0801H3.8393V12.4801H3.1993ZM7.0393 12.4801V14.0801H7.6793V12.4801H7.0393ZM10.2393 13.4401V14.0801H10.8793V13.4401H10.2393ZM11.5193 13.4401V14.0801H12.1593V13.4401H11.5193ZM12.7993 13.4401V14.0801H13.4393V13.4401H12.7993Z" fill="black"/>
</svg>
