<svg width="16" height="16" viewBox="0 0 16 16" fill="none" xmlns="http://www.w3.org/2000/svg">
<g clip-path="url(#clip0_547_4990)">
<path d="M11 8.28125C11 9.04271 10.6839 9.77299 10.1213 10.3114C9.55871 10.8499 8.79565 11.1523 8 11.1523C7.20435 11.1523 6.44129 10.8499 5.87868 10.3114C5.31607 9.77299 5 9.04271 5 8.28125C5 7.51979 5.31607 6.78951 5.87868 6.25108C6.44129 5.71265 7.20435 5.41016 8 5.41016C8.79565 5.41016 9.55871 5.71265 10.1213 6.25108C10.6839 6.78951 11 7.51979 11 8.28125Z" fill="#CA2061"/>
<path d="M14 14.0234V4.93164L9.5 0.625H4C3.46957 0.625 2.96086 0.82666 2.58579 1.18562C2.21071 1.54457 2 2.03142 2 2.53906V14.0234C2 14.5311 2.21071 15.0179 2.58579 15.3769C2.96086 15.7358 3.46957 15.9375 4 15.9375H12C12.5304 15.9375 13.0391 15.7358 13.4142 15.3769C13.7893 15.0179 14 14.5311 14 14.0234ZM9.5 3.49609C9.5 3.87682 9.65804 4.24196 9.93934 4.51118C10.2206 4.7804 10.6022 4.93164 11 4.93164H13V13.789C13 13.789 12 12.1094 8 12.1094C4 12.1094 3 13.789 3 13.789V2.53906C3 2.28524 3.10536 2.04182 3.29289 1.86234C3.48043 1.68286 3.73478 1.58203 4 1.58203H9.5V3.49609Z" fill="#CA2061"/>
</g>
<defs>
<clipPath id="clip0_547_4990">
<rect width="16" height="15.3125" fill="white" transform="translate(0 0.625)"/>
</clipPath>
</defs>
</svg>
