<svg width="16" height="16" viewBox="0 0 16 16" fill="none" xmlns="http://www.w3.org/2000/svg">
<g clip-path="url(#clip0_547_4986)">
<path d="M11 7.96875C11 8.73021 10.6839 9.46049 10.1213 9.99892C9.55871 10.5374 8.79565 10.8398 8 10.8398C7.20435 10.8398 6.44129 10.5374 5.87868 9.99892C5.31607 9.46049 5 8.73021 5 7.96875C5 7.20729 5.31607 6.47701 5.87868 5.93858C6.44129 5.40015 7.20435 5.09766 8 5.09766C8.79565 5.09766 9.55871 5.40015 10.1213 5.93858C10.6839 6.47701 11 7.20729 11 7.96875Z" fill="black"/>
<path d="M14 13.7109V4.61914L9.5 0.3125H4C3.46957 0.3125 2.96086 0.51416 2.58579 0.873116C2.21071 1.23207 2 1.71892 2 2.22656V13.7109C2 14.2186 2.21071 14.7054 2.58579 15.0644C2.96086 15.4233 3.46957 15.625 4 15.625H12C12.5304 15.625 13.0391 15.4233 13.4142 15.0644C13.7893 14.7054 14 14.2186 14 13.7109ZM9.5 3.18359C9.5 3.56432 9.65804 3.92946 9.93934 4.19868C10.2206 4.4679 10.6022 4.61914 11 4.61914H13V13.4765C13 13.4765 12 11.7969 8 11.7969C4 11.7969 3 13.4765 3 13.4765V2.22656C3 1.97274 3.10536 1.72932 3.29289 1.54984C3.48043 1.37036 3.73478 1.26953 4 1.26953H9.5V3.18359Z" fill="black"/>
</g>
<defs>
<clipPath id="clip0_547_4986">
<rect width="16" height="15.3125" fill="white" transform="translate(0 0.3125)"/>
</clipPath>
</defs>
</svg>
