<svg width="16" height="16" viewBox="0 0 16 16" fill="none" xmlns="http://www.w3.org/2000/svg">
<g clip-path="url(#clip0_547_4984)">
<path d="M11 7.65625C11 8.41771 10.6839 9.14799 10.1213 9.68642C9.55871 10.2249 8.79565 10.5273 8 10.5273C7.20435 10.5273 6.44129 10.2249 5.87868 9.68642C5.31607 9.14799 5 8.41771 5 7.65625C5 6.89479 5.31607 6.16451 5.87868 5.62608C6.44129 5.08765 7.20435 4.78516 8 4.78516C8.79565 4.78516 9.55871 5.08765 10.1213 5.62608C10.6839 6.16451 11 6.89479 11 7.65625Z" fill="white"/>
<path d="M14 13.3984V4.30664L9.5 0H4C3.46957 0 2.96086 0.20166 2.58579 0.560616C2.21071 0.919572 2 1.40642 2 1.91406V13.3984C2 13.9061 2.21071 14.3929 2.58579 14.7519C2.96086 15.1108 3.46957 15.3125 4 15.3125H12C12.5304 15.3125 13.0391 15.1108 13.4142 14.7519C13.7893 14.3929 14 13.9061 14 13.3984ZM9.5 2.87109C9.5 3.25182 9.65804 3.61696 9.93934 3.88618C10.2206 4.1554 10.6022 4.30664 11 4.30664H13V13.164C13 13.164 12 11.4844 8 11.4844C4 11.4844 3 13.164 3 13.164V1.91406C3 1.66024 3.10536 1.41682 3.29289 1.23734C3.48043 1.05786 3.73478 0.957031 4 0.957031H9.5V2.87109Z" fill="white"/>
</g>
<defs>
<clipPath id="clip0_547_4984">
<rect width="16" height="15.3125" fill="white"/>
</clipPath>
</defs>
</svg>
