<svg width="24" height="30" viewBox="0 0 24 30" fill="none" xmlns="http://www.w3.org/2000/svg">
<path d="M21.3333 3C22.0406 3 22.7189 3.28095 23.219 3.78105C23.719 4.28115 24 4.95942 24 5.66667V24.3333C24 25.0406 23.719 25.7189 23.219 26.219C22.7189 26.719 22.0406 27 21.3333 27H2.66667C1.95942 27 1.28115 26.719 0.781048 26.219C0.280951 25.7189 0 25.0406 0 24.3333V5.66667C0 4.95942 0.280951 4.28115 0.781048 3.78105C1.28115 3.28095 1.95942 3 2.66667 3H21.3333ZM20.6667 23.6667V16.6C20.6667 15.4472 20.2087 14.3416 19.3936 13.5264C18.5784 12.7113 17.4728 12.2533 16.32 12.2533C15.1867 12.2533 13.8667 12.9467 13.2267 13.9867V12.5067H9.50667V23.6667H13.2267V17.0933C13.2267 16.0667 14.0533 15.2267 15.08 15.2267C15.5751 15.2267 16.0499 15.4233 16.3999 15.7734C16.75 16.1235 16.9467 16.5983 16.9467 17.0933V23.6667H20.6667ZM5.17333 10.4133C5.76742 10.4133 6.33717 10.1773 6.75725 9.75725C7.17733 9.33717 7.41333 8.76742 7.41333 8.17333C7.41333 6.93333 6.41333 5.92 5.17333 5.92C4.57571 5.92 4.00257 6.1574 3.57999 6.57999C3.1574 7.00257 2.92 7.57571 2.92 8.17333C2.92 9.41333 3.93333 10.4133 5.17333 10.4133ZM7.02667 23.6667V12.5067H3.33333V23.6667H7.02667Z" fill="white"/>
</svg>
