<svg width="16" height="20" viewBox="0 0 16 20" fill="none" xmlns="http://www.w3.org/2000/svg">
<path d="M7.83634 6.25C8.18274 6.25 8.51496 6.3817 8.7599 6.61612C9.00485 6.85054 9.14246 7.16848 9.14246 7.5V8.75H6.53021V7.5C6.53021 7.16848 6.66782 6.85054 6.91277 6.61612C7.15771 6.3817 7.48993 6.25 7.83634 6.25ZM10.4486 8.845V7.5C10.4486 6.83696 10.1734 6.20107 9.68347 5.73223C9.19358 5.26339 8.52915 5 7.83634 5C7.14353 5 6.47909 5.26339 5.9892 5.73223C5.49931 6.20107 5.22409 6.83696 5.22409 7.5V8.845C4.51879 9.0525 3.91797 9.59125 3.91797 10.375V13.375C3.91797 14.395 4.93805 15 5.87715 15H9.79552C10.7346 15 11.7547 14.395 11.7547 13.375V10.375C11.7547 9.59125 11.1539 9.0525 10.4486 8.845ZM5.36123 10.1562C5.51021 10.0506 5.69179 9.99561 5.87715 10H9.79552C9.98084 9.9959 10.1623 10.0509 10.3114 10.1562C10.4225 10.2413 10.4486 10.3225 10.4486 10.375V13.375C10.4486 13.4275 10.4225 13.5087 10.3114 13.5938C10.1625 13.6994 9.98088 13.7544 9.79552 13.75H5.87715C5.69179 13.7544 5.51021 13.6994 5.36123 13.5938C5.25021 13.5087 5.22409 13.4275 5.22409 13.375V10.375C5.22409 10.3225 5.25021 10.2413 5.36123 10.1562Z" fill="black"/>
<path d="M2.61224 0C1.91943 0 1.255 0.263392 0.765109 0.732233C0.275218 1.20107 0 1.83696 0 2.5V17.5C0 18.163 0.275218 18.7989 0.765109 19.2678C1.255 19.7366 1.91943 20 2.61224 20H13.0612C13.754 20 14.4185 19.7366 14.9084 19.2678C15.3983 18.7989 15.6735 18.163 15.6735 17.5V2.5C15.6735 1.83696 15.3983 1.20107 14.9084 0.732233C14.4185 0.263392 13.754 0 13.0612 0L2.61224 0ZM2.61224 1.25H13.0612C13.4076 1.25 13.7398 1.3817 13.9848 1.61612C14.2297 1.85054 14.3673 2.16848 14.3673 2.5V17.5C14.3673 17.8315 14.2297 18.1495 13.9848 18.3839C13.7398 18.6183 13.4076 18.75 13.0612 18.75H2.61224C2.26584 18.75 1.93362 18.6183 1.68868 18.3839C1.44373 18.1495 1.30612 17.8315 1.30612 17.5V2.5C1.30612 2.16848 1.44373 1.85054 1.68868 1.61612C1.93362 1.3817 2.26584 1.25 2.61224 1.25Z" fill="black"/>
</svg>
