<svg width="16" height="13" viewBox="0 0 16 13" fill="none" xmlns="http://www.w3.org/2000/svg">
<path d="M0 2.75C0 2.25272 0.206413 1.77581 0.573832 1.42417C0.94125 1.07254 1.43958 0.875 1.95918 0.875H13.7143C14.2339 0.875 14.7322 1.07254 15.0996 1.42417C15.4671 1.77581 15.6735 2.25272 15.6735 2.75V10.25C15.6735 10.7473 15.4671 11.2242 15.0996 11.5758C14.7322 11.9275 14.2339 12.125 13.7143 12.125H1.95918C1.43958 12.125 0.94125 11.9275 0.573832 11.5758C0.206413 11.2242 0 10.7473 0 10.25V2.75ZM1.95918 1.8125C1.69938 1.8125 1.45022 1.91127 1.26651 2.08709C1.0828 2.2629 0.979592 2.50136 0.979592 2.75V2.95344L7.83673 6.89094L14.6939 2.95344V2.75C14.6939 2.50136 14.5907 2.2629 14.407 2.08709C14.2233 1.91127 13.9741 1.8125 13.7143 1.8125H1.95918ZM14.6939 4.04656L10.082 6.695L14.6939 9.41094V4.04656ZM14.6606 10.4928L9.13567 7.23875L7.83673 7.98406L6.5378 7.23875L1.0129 10.4919C1.06856 10.6914 1.19149 10.8677 1.3626 10.9935C1.53371 11.1193 1.74342 11.1875 1.95918 11.1875H13.7143C13.9299 11.1875 14.1395 11.1195 14.3106 10.9939C14.4817 10.8683 14.6047 10.6921 14.6606 10.4928ZM0.979592 9.41094L5.59151 6.695L0.979592 4.04656V9.41094Z" fill="#CA2061"/>
</svg>
