<svg width="16" height="16" viewBox="0 0 16 16" fill="none" xmlns="http://www.w3.org/2000/svg">
<path d="M3.93862 14.1641H12.0681C13.4676 14.1641 14.1641 13.4676 14.1641 12.0882V3.91182C14.1641 2.53237 13.4676 1.83594 12.0681 1.83594H3.93862C2.54577 1.83594 1.83594 2.52565 1.83594 3.91182V12.0882C1.83594 13.4743 2.54577 14.1641 3.93862 14.1641ZM3.95871 13.0859C3.28908 13.0859 2.91408 12.731 2.91408 12.0346V3.96539C2.91408 3.26897 3.28908 2.91405 3.95871 2.91405H12.048C12.7109 2.91405 13.0859 3.26897 13.0859 3.96539V12.0346C13.0859 12.731 12.7109 13.0859 12.048 13.0859H3.95871ZM6.28237 11.2578C6.54354 11.2578 6.70425 11.1239 6.75782 10.8761L7.05917 9.43639H8.30468L8.03014 10.7489C7.96985 11.0234 8.16408 11.2578 8.43862 11.2578C8.71317 11.2578 8.88728 11.1239 8.93417 10.8761L9.23548 9.42968H9.93194C10.1931 9.42968 10.3806 9.23548 10.3806 8.98102C10.3806 8.75334 10.2199 8.58594 9.99888 8.58594H9.41631L9.70425 7.22657H10.4141C10.6685 7.22657 10.856 7.03237 10.856 6.77791C10.856 6.55022 10.6953 6.38279 10.4743 6.38279H9.87837L10.1395 5.13059C10.1931 4.85602 9.99219 4.62165 9.71765 4.62165C9.45648 4.62165 9.28908 4.75557 9.23548 5.01005L8.94754 6.38279H7.70202L7.96317 5.13059C8.01674 4.86274 7.82925 4.62165 7.54799 4.62165C7.28014 4.62165 7.11271 4.75557 7.05917 5.01005L6.77791 6.38279H6.06808C5.81362 6.38279 5.62611 6.57702 5.62611 6.83148C5.62611 7.05917 5.78685 7.22657 6.00782 7.22657H6.59711L6.30917 8.58594H5.59265C5.33817 8.58594 5.14399 8.78014 5.14399 9.03459C5.14399 9.26228 5.30468 9.42968 5.53237 9.42968H6.13505L5.86051 10.7489C5.80691 11.0234 6.00782 11.2578 6.28237 11.2578ZM7.18639 8.66628L7.49442 7.15959H8.84039L8.52568 8.66628H7.18639Z" fill="black"/>
</svg>
