<svg width="10" height="12" viewBox="0 0 10 12" fill="none" xmlns="http://www.w3.org/2000/svg">
<path d="M8.29 8.1914L6.46943 7.00805L7.1558 5.7497C7.31581 5.45584 7.39976 5.12662 7.4 4.79203V2.8C7.4 2.05739 7.105 1.3452 6.5799 0.820101C6.0548 0.294999 5.34261 0 4.6 0C3.8574 0 3.14521 0.294999 2.6201 0.820101C2.095 1.3452 1.8 2.05739 1.8 2.8V4.79203C1.80025 5.12663 1.8842 5.45586 2.0442 5.74972L2.73058 7.00805L0.910003 8.1914C0.630205 8.37253 0.400298 8.62094 0.241321 8.91389C0.0823446 9.20685 -0.000625349 9.53499 3.54871e-06 9.8683V12H9.2V9.8683C9.20063 9.53499 9.11766 9.20685 8.95868 8.91389C8.7997 8.62094 8.5698 8.37253 8.29 8.1914ZM8.4 11.2H0.800003V9.8683C0.799629 9.66831 0.849415 9.47142 0.944806 9.29565C1.0402 9.11987 1.17814 8.97083 1.34603 8.86215L3.78753 7.27517L2.74653 5.36665C2.65053 5.19033 2.60016 4.99279 2.6 4.79203V2.8C2.6 2.26957 2.81072 1.76086 3.18579 1.38579C3.56086 1.01071 4.06957 0.8 4.6 0.8C5.13044 0.8 5.63914 1.01071 6.01422 1.38579C6.38929 1.76086 6.6 2.26957 6.6 2.8V4.79203C6.59985 4.99279 6.54948 5.19033 6.45348 5.36665L5.4125 7.27517L7.85405 8.86215C8.02192 8.97084 8.15986 9.11989 8.25523 9.29566C8.35061 9.47143 8.40039 9.66832 8.4 9.8683V11.2Z" fill="white"/>
</svg>
