<svg width="20" height="20" viewBox="0 0 52 52" fill="none" xmlns="http://www.w3.org/2000/svg">
<path d="M10.8333 9.97517V29.876C10.8334 31.3027 11.1856 32.7073 11.8587 33.9651C12.5319 35.223 13.5052 36.2952 14.6922 37.0867L26 44.6267L37.3078 37.0867C38.4945 36.2954 39.4676 35.2235 40.1408 33.9661C40.8139 32.7086 41.1663 31.3045 41.1667 29.8782V9.97517L26 6.60817L10.8333 9.97517ZM8.1965 6.12284L26 2.1665L43.8035 6.12284C44.2846 6.22979 44.7149 6.4976 45.0234 6.88205C45.3318 7.2665 45.4999 7.74462 45.5 8.2375V29.876C45.4998 32.0161 44.9714 34.1231 43.9614 36.0099C42.9515 37.8967 41.4914 39.505 39.7107 40.692L26 49.8332L12.2893 40.692C10.5089 39.5052 9.049 37.8972 8.03909 36.0108C7.02918 34.1244 6.50051 32.0179 6.5 29.8782V8.2375C6.50008 7.74462 6.66822 7.2665 6.97664 6.88205C7.28507 6.4976 7.71536 6.22979 8.1965 6.12284ZM26 29.2498L19.6322 32.5973L20.8477 25.508L15.6975 20.4857L22.815 19.45L26 12.9998L29.185 19.45L36.3025 20.4857L31.1523 25.508L32.3657 32.5973L26 29.2498Z" fill="#CA2061"/>
</svg>
