<svg width="16" height="16" viewBox="0 0 16 16" fill="none" xmlns="http://www.w3.org/2000/svg">
<g clip-path="url(#clip0_547_4849)">
<path d="M9.75146 6.19285C10.3505 6.79285 11.4815 6.62985 12.2795 5.83085C13.0775 5.03185 13.2395 3.89885 12.6415 3.29985C12.0425 2.69985 10.9115 2.86185 10.1135 3.66085C9.31546 4.46085 9.15346 5.59385 9.75146 6.19285Z" fill="black"/>
<path d="M15.8102 3.31194C15.4472 4.84594 14.4762 6.93794 12.1702 9.52994L11.9302 11.9379C11.8663 12.5149 11.6082 13.053 11.1982 13.4639L8.81623 15.8499C8.74059 15.9264 8.64272 15.977 8.53659 15.9945C8.43046 16.012 8.32152 15.9955 8.22534 15.9474C8.12916 15.8992 8.05067 15.8219 8.00107 15.7264C7.95148 15.631 7.93334 15.5223 7.94923 15.4159L8.21923 13.5169C8.25923 13.2369 8.20623 12.9239 8.08823 12.5609C8.01343 12.3389 7.93037 12.1198 7.83923 11.9039L7.75723 11.7019C6.94223 11.5049 6.17923 11.0399 5.56623 10.4249C4.95223 9.80995 4.48723 9.04594 4.29123 8.22994L4.08823 8.14694C3.873 8.0563 3.65452 7.97358 3.43323 7.89894C3.07023 7.77994 2.75823 7.72694 2.47823 7.76694L0.582232 8.03694C0.475939 8.05257 0.367425 8.03423 0.272171 7.98454C0.176916 7.93485 0.0997867 7.85635 0.0517843 7.76024C0.00378195 7.66412 -0.0126411 7.5553 0.00485788 7.4493C0.0223569 7.3433 0.0728841 7.24553 0.149232 7.16994L2.53123 4.78394C2.94123 4.37394 3.47823 4.11395 4.05523 4.04994H4.06123L6.46123 3.81194C9.00423 1.54994 11.0862 0.581945 12.6222 0.207945C13.5122 -0.00905545 14.2122 -0.0240555 14.7022 0.0199445C14.9462 0.0429445 15.1372 0.0799445 15.2722 0.112945C15.3392 0.129945 15.3922 0.145945 15.4322 0.157945C15.6162 0.217945 15.7112 0.287945 15.7832 0.452945L15.8122 0.525945C15.89 0.760025 15.9426 1.00172 15.9692 1.24694C16.0242 1.73194 16.0202 2.42494 15.8102 3.31194ZM10.9822 10.7869L11.0222 10.7469L10.9152 11.8279C10.8761 12.1733 10.721 12.4952 10.4752 12.7409L9.17723 14.0409L9.23123 13.6609C9.30323 13.1549 9.19723 12.6679 9.05923 12.2429C9.00878 12.0914 8.95409 11.9414 8.89523 11.7929C9.63323 11.7279 10.3572 11.4129 10.9822 10.7869ZM5.20423 4.99994C4.57923 5.62594 4.26423 6.35094 4.20023 7.08994C4.0518 7.03106 3.90174 6.97637 3.75023 6.92594C3.32623 6.78794 2.84023 6.68194 2.33423 6.75394L1.95423 6.80794L3.25423 5.50794C3.49923 5.26194 3.82023 5.10694 4.16423 5.06794L5.24423 4.96094L5.20423 4.99994ZM14.6102 1.03894C14.2302 1.00494 13.6432 1.01194 12.8642 1.20194C11.3062 1.58194 8.94723 2.69794 5.92723 5.72294C5.30723 6.34294 5.12823 7.06294 5.24023 7.77394C5.34723 8.44994 5.72323 9.13594 6.28823 9.70194C6.85223 10.2669 7.53823 10.6429 8.21223 10.7509C8.92223 10.8629 9.64123 10.6839 10.2602 10.0629C13.3392 6.97994 14.4522 4.61894 14.8162 3.07594C14.9992 2.30494 14.9962 1.73094 14.9542 1.36294C14.944 1.26791 14.929 1.17346 14.9092 1.07994C14.81 1.06136 14.7098 1.04768 14.6092 1.03894H14.6102Z" fill="black"/>
<path d="M7.0096 12.1389C6.34465 11.78 5.73669 11.3243 5.2056 10.7869C4.63624 10.2233 4.15997 9.57283 3.7946 8.85986C2.6926 9.85186 1.8296 13.9139 1.9556 14.0399C2.0806 14.1659 5.8916 13.1439 7.0096 12.1379V12.1389Z" fill="black"/>
</g>
<defs>
<clipPath id="clip0_547_4849">
<rect width="16" height="16" fill="white"/>
</clipPath>
</defs>
</svg>
