<svg width="16" height="16" viewBox="0 0 16 16" fill="none" xmlns="http://www.w3.org/2000/svg">
<path d="M5.6559 11.7419C6.97721 12.7102 8.61541 13.1439 10.2428 12.9562C11.8701 12.7685 13.3666 11.9733 14.4328 10.7297C15.499 9.48604 16.0563 7.88567 15.9932 6.24876C15.9301 4.61184 15.2513 3.05911 14.0926 1.90119C12.9338 0.743273 11.3806 0.0655718 9.74367 0.00366997C8.10671 -0.0582319 6.50674 0.500231 5.26385 1.56733C4.02097 2.63443 3.22683 4.13147 3.04031 5.75894C2.8538 7.38641 3.28866 9.0243 4.2579 10.3449V10.3439C4.2179 10.3739 4.1799 10.4059 4.1429 10.4419L0.2929 14.2919C0.105259 14.4794 -0.000208855 14.7338 -0.000302315 14.9991C-0.000395775 15.2643 0.104892 15.5188 0.292399 15.7064C0.479907 15.8941 0.734276 15.9995 0.999546 15.9996C1.26482 15.9997 1.51926 15.8944 1.7069 15.7069L5.5569 11.8569C5.59309 11.8212 5.62552 11.7827 5.6559 11.7419ZM9.4999 11.9999C8.77763 11.9999 8.06243 11.8577 7.39514 11.5813C6.72785 11.3049 6.12153 10.8997 5.61081 10.389C5.10009 9.87829 4.69496 9.27197 4.41856 8.60468C4.14216 7.93739 3.9999 7.22219 3.9999 6.49992C3.9999 5.77765 4.14216 5.06245 4.41856 4.39516C4.69496 3.72787 5.10009 3.12156 5.61081 2.61083C6.12153 2.10011 6.72785 1.69498 7.39514 1.41858C8.06243 1.14218 8.77763 0.999921 9.4999 0.999921C10.9586 0.999921 12.3575 1.57938 13.389 2.61083C14.4204 3.64228 14.9999 5.04123 14.9999 6.49992C14.9999 7.95861 14.4204 9.35756 13.389 10.389C12.3575 11.4205 10.9586 11.9999 9.4999 11.9999Z" fill="#CA2061"/>
</svg>
