<svg width="24" height="22" viewBox="0 0 24 22" fill="none" xmlns="http://www.w3.org/2000/svg">
<path d="M24 2.97059C23.1166 3.40294 22.1644 3.68706 21.1778 3.82294C22.1874 3.16824 22.9675 2.13059 23.3346 0.882941C22.3824 1.50059 21.327 1.93294 20.2141 2.18C19.3078 1.11765 18.0344 0.5 16.5889 0.5C13.8929 0.5 11.6902 2.87176 11.6902 5.79941C11.6902 6.21941 11.7361 6.62706 11.8164 7.01C7.73231 6.78765 4.0956 4.67529 1.67495 1.47588C1.25048 2.25412 1.00956 3.16824 1.00956 4.13176C1.00956 5.97235 1.86998 7.60294 3.20077 8.52941C2.38623 8.52941 1.62906 8.28235 0.963671 7.91176V7.94882C0.963671 10.5182 2.66157 12.6676 4.91013 13.1494C4.18822 13.3621 3.43032 13.3917 2.69599 13.2359C3.00758 14.2889 3.61782 15.2104 4.44094 15.8707C5.26405 16.531 6.25864 16.8969 7.2849 16.9171C5.54527 18.4 3.38891 19.2015 1.17017 19.19C0.780115 19.19 0.390057 19.1653 0 19.1159C2.17973 20.6229 4.77247 21.5 7.54876 21.5C16.5889 21.5 21.5564 13.4212 21.5564 6.41706C21.5564 6.18235 21.5564 5.96 21.5449 5.72529C22.5086 4.98412 23.3346 4.04529 24 2.97059Z" fill="white"/>
</svg>
