<svg width="32" height="29" viewBox="0 0 32 29" fill="none" xmlns="http://www.w3.org/2000/svg">
<path d="M17.9634 2.1319C17.7654 1.78703 17.48 1.5005 17.1358 1.30125C16.7917 1.10199 16.4011 0.99707 16.0034 0.99707C15.6057 0.99707 15.2151 1.10199 14.871 1.30125C14.5269 1.5005 14.2414 1.78703 14.0434 2.1319L0.329404 25.4659C-0.584596 27.0219 0.511403 28.9999 2.2894 28.9999H29.7154C31.4934 28.9999 32.5914 27.0199 31.6754 25.4659L17.9634 2.1319ZM15.9994 8.9999C17.0694 8.9999 17.9074 9.9239 17.7994 10.9899L17.0994 18.0039C17.0759 18.2794 16.9498 18.5361 16.7461 18.7232C16.5424 18.9102 16.2759 19.014 15.9994 19.014C15.7229 19.014 15.4564 18.9102 15.2527 18.7232C15.049 18.5361 14.9229 18.2794 14.8994 18.0039L14.1994 10.9899C14.1743 10.7384 14.2021 10.4844 14.2811 10.2442C14.3601 10.0041 14.4885 9.7832 14.6581 9.59573C14.8277 9.40825 15.0346 9.25838 15.2656 9.15576C15.4967 9.05314 15.7466 9.00005 15.9994 8.9999ZM16.0034 20.9999C16.5338 20.9999 17.0425 21.2106 17.4176 21.5857C17.7927 21.9608 18.0034 22.4695 18.0034 22.9999C18.0034 23.5303 17.7927 24.039 17.4176 24.4141C17.0425 24.7892 16.5338 24.9999 16.0034 24.9999C15.473 24.9999 14.9643 24.7892 14.5892 24.4141C14.2141 24.039 14.0034 23.5303 14.0034 22.9999C14.0034 22.4695 14.2141 21.9608 14.5892 21.5857C14.9643 21.2106 15.473 20.9999 16.0034 20.9999Z" fill="#CA2061"/>
</svg>
