<svg width="16" height="16" viewBox="0 0 16 16" fill="none" xmlns="http://www.w3.org/2000/svg">
<g clip-path="url(#clip0_547_3993)">
<path d="M5.16308 14.0001H14.9991C14.7001 13.8011 14.4421 13.4471 14.2191 13.0001C13.3191 11.2001 12.9991 7.88006 12.9991 7.00006C12.9991 6.73606 12.9791 6.47706 12.9391 6.22406L12.0011 7.16206C12.0211 7.87006 12.1581 9.31606 12.4581 10.7421C12.6191 11.5091 12.8351 12.3081 13.1211 13.0001H6.16308L5.16308 14.0001ZM10.7441 4.09006C10.202 3.57777 9.52712 3.22785 8.79608 3.08006L7.99908 2.91706L7.20208 3.07806C6.29787 3.26229 5.48511 3.75334 4.90142 4.46807C4.31772 5.18279 3.99895 6.07727 3.99908 7.00006C3.99908 7.62806 3.86508 9.19706 3.54008 10.7421C3.49008 10.9801 3.43508 11.2211 3.37408 11.4601L1.72108 13.1131C1.74108 13.0761 1.76108 13.0391 1.78008 13.0001C2.67808 11.2001 2.99908 7.88006 2.99908 7.00006C2.99908 4.58006 4.71908 2.56006 7.00408 2.09906C6.99012 1.96001 7.00546 1.81958 7.04911 1.68683C7.09276 1.55408 7.16375 1.43195 7.2575 1.32831C7.35125 1.22468 7.46568 1.14185 7.59341 1.08516C7.72114 1.02847 7.85934 0.999182 7.99908 0.999182C8.13882 0.999182 8.27702 1.02847 8.40475 1.08516C8.53248 1.14185 8.64691 1.22468 8.74066 1.32831C8.83441 1.43195 8.9054 1.55408 8.94905 1.68683C8.9927 1.81958 9.00804 1.96001 8.99408 2.09906C9.93608 2.28906 10.7821 2.74406 11.4511 3.38306L10.7441 4.09006ZM9.99908 15.0001C9.99908 15.5305 9.78837 16.0392 9.41329 16.4143C9.03822 16.7893 8.52951 17.0001 7.99908 17.0001C7.46865 17.0001 6.95994 16.7893 6.58487 16.4143C6.20979 16.0392 5.99908 15.5305 5.99908 15.0001H9.99908ZM0.62408 15.6251C0.524624 15.7245 0.46875 15.8594 0.46875 16.0001C0.46875 16.1407 0.524624 16.2756 0.62408 16.3751C0.723536 16.4745 0.858428 16.5304 0.99908 16.5304C1.13973 16.5304 1.27462 16.4745 1.37408 16.3751L16.1241 1.62506C16.1733 1.57581 16.2124 1.51735 16.239 1.45301C16.2657 1.38866 16.2794 1.3197 16.2794 1.25006C16.2794 1.18041 16.2657 1.11145 16.239 1.04711C16.2124 0.982765 16.1733 0.924302 16.1241 0.875057C16.0748 0.825811 16.0164 0.786747 15.952 0.760096C15.8877 0.733444 15.8187 0.719727 15.7491 0.719727C15.6794 0.719727 15.6105 0.733444 15.5461 0.760096C15.4818 0.786747 15.4233 0.825811 15.3741 0.875057L0.62408 15.6251Z" fill="white"/>
</g>
<defs>
<clipPath id="clip0_547_3993">
<rect width="16" height="16" fill="white"/>
</clipPath>
</defs>
</svg>
